<?xml version="1.0" standalone="no"?>
<!DOCTYPE svg PUBLIC "-//W3C//DTD SVG 20010904//EN"
 "http://www.w3.org/TR/2001/REC-SVG-20010904/DTD/svg10.dtd">
<svg version="1.0" xmlns="http://www.w3.org/2000/svg"
 width="500.000000pt" height="500.000000pt" viewBox="0 0 500.000000 500.000000"
 preserveAspectRatio="xMidYMid meet">

<g transform="translate(0.000000,500.000000) scale(0.100000,-0.100000)"
fill="#000000" stroke="none">
<path d="M2176 4974 c-226 -30 -414 -80 -611 -160 -579 -238 -1037 -665 -1306
-1219 -124 -255 -198 -502 -235 -785 -23 -179 -15 -557 15 -725 50 -281 139
-540 261 -765 l35 -65 158 -3 158 -3 -12 23 c-9 17 -11 111 -7 374 l6 352 -41
6 c-30 5 -51 18 -78 46 -21 22 -40 36 -42 32 -14 -23 -77 -236 -83 -280 -6
-46 -9 -52 -31 -52 -31 0 -79 25 -87 45 -21 55 9 168 99 380 60 142 171 363
221 440 l38 60 -3 500 -3 500 24 35 c13 19 35 40 48 47 20 10 400 13 1800 13
1763 0 1775 0 1808 -20 66 -40 66 -36 58 -619 l-6 -523 -47 -42 c-26 -22 -52
-41 -57 -41 -7 0 -11 45 -11 132 0 142 -5 151 -46 71 -11 -21 -25 -38 -33 -38
-18 0 -43 30 -51 63 -17 64 50 187 101 187 l24 0 0 350 0 350 -1740 0 -1740 0
-1 -467 c-1 -258 0 -472 1 -478 1 -5 4 -17 7 -25 2 -8 -14 -38 -35 -66 -40
-53 -127 -213 -120 -220 3 -2 22 22 44 53 52 77 187 211 221 219 18 5 38 1 62
-12 137 -74 83 -315 -117 -522 -45 -46 -71 -81 -67 -89 3 -8 5 -161 5 -339 l0
-324 1740 0 1739 0 3 321 3 321 -43 43 c-23 24 -45 57 -48 74 -4 17 -9 31 -13
31 -4 0 -38 -31 -77 -68 -38 -38 -82 -72 -98 -76 -57 -14 -146 59 -146 120 0
13 -3 24 -8 24 -4 0 -32 -25 -61 -56 -96 -99 -152 -117 -210 -69 -39 34 -55
84 -47 151 3 30 3 54 0 54 -3 0 -19 -9 -34 -20 -16 -12 -53 -31 -82 -44 -36
-16 -67 -40 -93 -71 -54 -66 -118 -105 -172 -105 -56 0 -114 30 -150 77 -25
33 -28 44 -28 117 0 72 4 89 36 156 49 101 122 195 183 236 28 19 66 46 83 60
85 69 197 22 224 -93 10 -48 -9 -146 -45 -227 -14 -33 -24 -62 -21 -65 10 -9
72 30 114 73 28 28 66 93 119 201 85 173 174 324 221 374 34 36 62 39 102 10
34 -24 37 -49 9 -74 -32 -29 -118 -169 -185 -300 -120 -236 -173 -405 -131
-421 43 -16 171 133 257 297 68 131 120 199 152 199 31 0 87 -36 87 -56 0 -9
-14 -32 -30 -51 -59 -66 -150 -277 -150 -345 0 -64 64 -39 138 55 28 35 76
108 107 162 72 127 116 180 174 210 26 13 54 31 62 41 18 22 71 44 106 44 40
0 97 -42 118 -86 25 -53 16 -147 -23 -248 -17 -44 -29 -82 -27 -84 10 -10 97
52 144 104 51 56 81 66 81 26 0 -48 -176 -200 -259 -222 -26 -7 -47 -23 -69
-52 -35 -46 -86 -91 -125 -109 l-24 -11 5 -352 c4 -262 2 -358 -7 -374 l-12
-23 158 3 158 3 38 70 c119 218 219 516 264 790 28 171 26 624 -4 795 -164
932 -804 1672 -1699 1965 -257 84 -470 115 -777 114 -117 -1 -257 -7 -311 -15z
m383 -2120 c37 -30 38 -44 10 -70 -12 -10 -42 -46 -66 -79 l-44 -60 46 -7 c54
-8 75 -22 75 -53 0 -20 -6 -22 -92 -31 l-92 -9 -58 -115 c-64 -126 -101 -233
-96 -277 4 -35 41 -42 88 -18 44 22 172 147 226 218 l45 60 -22 23 c-31 33
-22 58 26 64 36 5 42 10 74 65 110 191 206 315 243 315 30 0 76 -28 83 -50 5
-16 -4 -31 -40 -65 -47 -46 -165 -219 -165 -242 0 -9 19 -13 63 -13 64 0 94
-12 97 -40 5 -37 1 -40 -72 -40 l-73 0 0 -142 c-1 -161 -20 -257 -77 -380 -35
-76 -103 -148 -140 -148 -41 0 -91 35 -115 80 -30 56 -31 147 -3 255 11 43 20
83 20 88 0 5 -33 -22 -73 -60 -78 -74 -147 -113 -199 -113 -72 0 -128 64 -128
146 l0 36 -64 -69 c-112 -120 -198 -149 -258 -85 -78 83 -70 125 81 394 36 64
35 87 -4 112 -23 15 -25 15 -38 -6 -146 -236 -226 -320 -350 -364 -26 -9 -60
-36 -98 -78 -89 -97 -157 -118 -244 -76 -81 39 -118 126 -96 225 17 73 80 196
133 258 46 55 189 164 224 173 61 16 132 -25 160 -92 21 -51 17 -111 -17 -204
-16 -47 -32 -93 -35 -102 -9 -26 8 -22 62 15 97 66 232 274 213 325 -12 32 20
104 56 128 26 17 29 17 63 -2 54 -29 60 -45 29 -86 -15 -19 -27 -42 -27 -50 0
-8 22 -25 50 -38 107 -50 108 -80 11 -272 -85 -168 -90 -199 -32 -177 64 24
230 217 292 340 21 43 39 81 39 84 0 3 -8 5 -18 5 -24 0 -42 19 -42 46 0 26
17 34 73 34 41 1 43 2 92 81 63 99 125 169 153 169 11 0 34 -12 51 -26z"/>
<path d="M1365 2590 c-3 -5 -1 -19 5 -31 14 -25 6 -49 -15 -49 -22 0 -92 -67
-121 -116 -40 -68 -13 -131 65 -154 29 -8 33 -6 52 23 10 18 33 65 50 106 63
150 63 231 0 231 -16 0 -33 -4 -36 -10z"/>
<path d="M2710 2348 c-47 -106 -107 -293 -120 -373 -22 -137 13 -154 72 -35
21 41 49 120 63 175 28 107 46 305 28 305 -6 0 -25 -33 -43 -72z"/>
<path d="M1166 2218 c-17 -64 -2 -148 26 -148 14 0 88 72 88 86 0 7 -12 20
-28 28 -15 8 -36 23 -46 35 -24 27 -32 26 -40 -1z"/>
<path d="M1841 3726 c-17 -20 -2 -48 23 -44 24 3 34 37 14 49 -18 12 -24 11
-37 -5z"/>
<path d="M3275 2557 c6 -41 5 -45 -17 -50 -60 -16 -138 -114 -138 -175 0 -43
48 -92 91 -92 34 0 52 25 101 140 25 59 32 90 32 145 l1 70 -38 3 -38 3 6 -44z"/>
<path d="M4487 2594 c-3 -3 -1 -18 4 -32 12 -31 5 -52 -16 -52 -24 0 -94 -69
-116 -114 -25 -52 -24 -89 4 -121 27 -31 81 -49 96 -32 20 25 80 154 95 206
19 65 21 122 4 139 -12 12 -60 16 -71 6z"/>
<path d="M854 2551 c-75 -48 -252 -246 -322 -363 l-23 -37 23 -20 c50 -47 116
-17 214 99 87 103 180 313 147 333 -5 3 -23 -2 -39 -12z m-104 -222 c0 -11 -6
-29 -12 -42 -22 -37 -79 -107 -89 -107 -14 0 -11 88 4 97 7 4 26 25 41 45 29
38 56 42 56 7z"/>
<path d="M732 2320 c0 -14 2 -19 5 -12 2 6 2 18 0 25 -3 6 -5 1 -5 -13z"/>
<path d="M3075 2230 c-16 -25 -17 -125 -2 -144 14 -19 15 -19 42 -2 30 20 74
66 75 78 0 4 -15 15 -32 24 -18 9 -43 25 -54 36 -15 14 -24 16 -29 8z"/>
<path d="M4285 2181 c-8 -70 -1 -101 24 -101 18 0 101 66 101 80 0 5 -20 18
-45 29 -25 11 -48 27 -51 35 -12 31 -22 15 -29 -43z"/>
<path d="M1940 1232 c0 -30 27 -32 560 -32 533 0 560 2 560 32 0 4 -252 8
-560 8 -308 0 -560 -4 -560 -8z"/>
<path d="M4202 1158 c-39 -39 17 -100 58 -63 24 22 25 38 4 59 -18 19 -45 21
-62 4z"/>
<path d="M4352 1158 c-32 -32 4 -87 48 -73 25 8 37 50 20 70 -15 18 -51 20
-68 3z"/>
<path d="M4500 1150 c-25 -46 23 -88 61 -54 10 9 19 25 19 34 0 40 -61 55 -80
20z"/>
<path d="M420 1125 c0 -13 19 -15 143 -13 86 2 142 7 142 13 0 6 -56 11 -142
13 -124 2 -143 0 -143 -13z"/>
<path d="M500 1005 c0 -12 160 -194 251 -284 282 -281 645 -495 1039 -614 233
-70 432 -98 710 -98 359 0 643 55 958 187 265 111 509 265 717 454 88 79 248
251 296 317 l30 43 -2000 0 c-1101 0 -2001 -2 -2001 -5z"/>
</g>
</svg>
